<?xml version="1.0" standalone="no"?><!DOCTYPE svg PUBLIC "-//W3C//DTD SVG 1.1//EN" "http://www.w3.org/Graphics/SVG/1.1/DTD/svg11.dtd"><svg t="1775187561821" class="icon" viewBox="0 0 1024 1024" version="1.1" xmlns="http://www.w3.org/2000/svg" p-id="5035" xmlns:xlink="http://www.w3.org/1999/xlink" width="200" height="200"><path d="M482.986667 967.68c-249.173333 0-452.266667-203.093333-452.266667-452.266667 0-13.653333 11.946667-25.6 25.6-25.6s25.6 11.946667 25.6 25.6c0 221.866667 179.2 401.066667 401.066667 401.066667s401.066667-179.2 401.066666-401.066667S704.853333 114.346667 482.986667 114.346667c-13.653333 0-25.6-11.946667-25.6-25.6s11.946667-25.6 25.6-25.6c249.173333 0 452.266667 203.093333 452.266666 452.266666S732.16 967.68 482.986667 967.68z" fill="#333333" p-id="5036"></path><path d="M482.986667 797.013333c-155.306667 0-281.6-126.293333-281.6-281.6s126.293333-281.6 281.6-281.6 281.6 126.293333 281.6 281.6c0 13.653333-11.946667 25.6-25.6 25.6s-25.6-11.946667-25.6-25.6c0-126.293333-104.106667-230.4-230.4-230.4s-230.4 104.106667-230.4 230.4 104.106667 230.4 230.4 230.4c13.653333 0 25.6 11.946667 25.6 25.6s-11.946667 25.6-25.6 25.6z" fill="#333333" p-id="5037"></path></svg>